<svg width="26" height="26" viewBox="0 0 26 26" fill="none" xmlns="http://www.w3.org/2000/svg">
<path d="M24.3318 6.50065C23.4976 6.87982 22.5985 7.12898 21.6668 7.24815C22.6201 6.67398 23.3568 5.76398 23.7035 4.66982C22.8043 5.21148 21.8076 5.59065 20.7568 5.80732C19.901 4.87565 18.6985 4.33398 17.3335 4.33398C14.7876 4.33398 12.7076 6.41398 12.7076 8.98148C12.7076 9.34982 12.751 9.70732 12.8268 10.0432C8.97013 9.84815 5.53596 7.99565 3.25012 5.18982C2.84929 5.87232 2.62179 6.67398 2.62179 7.51898C2.62179 9.13315 3.43429 10.5631 4.69096 11.3756C3.92179 11.3756 3.20679 11.159 2.57846 10.834V10.8665C2.57846 13.1198 4.18179 15.0048 6.30512 15.4273C5.62353 15.6147 4.90766 15.6406 4.21429 15.5031C4.50853 16.4267 5.08479 17.2348 5.86206 17.8138C6.63933 18.3929 7.57853 18.7138 8.54762 18.7315C6.90493 20.032 4.86863 20.735 2.77346 20.7248C2.40512 20.7248 2.03679 20.7031 1.66846 20.6598C3.72679 21.9815 6.17512 22.7506 8.79679 22.7506C17.3335 22.7506 22.0243 15.6656 22.0243 9.52315C22.0243 9.31732 22.0243 9.12232 22.0135 8.91648C22.9235 8.26648 23.7035 7.44315 24.3318 6.50065Z" fill="white"/>
</svg>
